<?xml version="1.0" encoding="UTF-8" standalone="no"?>
<svg
   xmlns:dc="http://purl.org/dc/elements/1.1/"
   xmlns:cc="http://creativecommons.org/ns#"
   xmlns:rdf="http://www.w3.org/1999/02/22-rdf-syntax-ns#"
   xmlns:svg="http://www.w3.org/2000/svg"
   xmlns="http://www.w3.org/2000/svg"
   version="1.1"
   width="76.967mm"
   height="72.558mm"
   viewBox="0 0 272.71746 257.09618"
   id="svg2">
  <defs
     id="defs17" />
  <metadata
     id="metadata7">
    <rdf:RDF>
      <cc:Work
         rdf:about="">
        <dc:format>image/svg+xml</dc:format>
        <dc:type
           rdf:resource="http://purl.org/dc/dcmitype/StillImage" />
        <dc:title></dc:title>
      </cc:Work>
    </rdf:RDF>
  </metadata>
  <g
     transform="translate(-68.663 -51.743)"
     id="layer1">
    <circle
       fill="#fff"
       r="103.54"
       cx="232.84"
       cy="200.3"
       stroke="#000"
       fill-rule="evenodd"
       stroke-width="10"
       style="image-rendering:auto;fill:#ffffff;fill-opacity:0"
       id="path3336" />
    <g
       id="g8"
       style="fill:none;stroke:#000000">
      <path
         id="path3338"
         d="M 89.025,55.356 C 139.8,143.81 140.8,144.4 140.8,144.4 L 116.65,136.14 73.667,58.248 Z"
         style="stroke-width:6.48449993" />
    </g>
    <path
       id="path4308"
       d="m 181.32,187.48 -21.07,16.43"
       style="fill:none;stroke-width:0" />
    <g
       style="stroke-width:2.28937793;stroke-miterlimit:4;stroke-dasharray:none"
       transform="matrix(2.1840071,0,0,2.1840071,173.92045,137.30015)"
       id="g4195">
      <g
         style="stroke-width:2.28937793;stroke-miterlimit:4;stroke-dasharray:none"
         id="g4153">
        <path
           style="stroke-width:2.28937793;stroke-miterlimit:4;stroke-dasharray:none"
           d="M 43,20.113 43,14.5 C 43,6.505 35.822,0 27,0 18.178,0 11,6.505 11,14.5 l 0,5.613 C 7.599,20.699 5,23.663 5,27.23 L 5,46.772 C 5,50.757 8.243,54 12.229,54 l 29.542,0 C 45.757,54 49,50.757 49,46.771 l 0,-19.542 c 0,-3.566 -2.599,-6.53 -6,-7.116 z M 13,14.5 C 13,7.607 19.28,2 27,2 34.72,2 41,7.607 41,14.5 l 0,5.5 -28,0 0,-5.5 z M 47,46.771 C 47,49.654 44.654,52 41.771,52 L 12.229,52 C 9.346,52 7,49.654 7,46.771 L 7,27.229 C 7,24.346 9.346,22 12.229,22 l 29.542,0 C 44.654,22 47,24.346 47,27.229 l 0,19.542 z"
           id="path4155" />
        <path
           style="stroke-width:2.28937793;stroke-miterlimit:4;stroke-dasharray:none"
           d="m 27,28 c -2.206,0 -4,1.794 -4,4 l 0,6 c 0,2.206 1.794,4 4,4 2.206,0 4,-1.794 4,-4 l 0,-6 c 0,-2.206 -1.794,-4 -4,-4 z m 2,10 c 0,1.103 -0.897,2 -2,2 -1.103,0 -2,-0.897 -2,-2 l 0,-6 c 0,-1.103 0.897,-2 2,-2 1.103,0 2,0.897 2,2 l 0,6 z"
           id="path4157" />
      </g>
      <g
         style="stroke-width:2.28937793;stroke-miterlimit:4;stroke-dasharray:none"
         id="g4159" />
      <g
         style="stroke-width:2.28937793;stroke-miterlimit:4;stroke-dasharray:none"
         id="g4161" />
      <g
         style="stroke-width:2.28937793;stroke-miterlimit:4;stroke-dasharray:none"
         id="g4163" />
      <g
         style="stroke-width:2.28937793;stroke-miterlimit:4;stroke-dasharray:none"
         id="g4165" />
      <g
         style="stroke-width:2.28937793;stroke-miterlimit:4;stroke-dasharray:none"
         id="g4167" />
      <g
         style="stroke-width:2.28937793;stroke-miterlimit:4;stroke-dasharray:none"
         id="g4169" />
      <g
         style="stroke-width:2.28937793;stroke-miterlimit:4;stroke-dasharray:none"
         id="g4171" />
      <g
         style="stroke-width:2.28937793;stroke-miterlimit:4;stroke-dasharray:none"
         id="g4173" />
      <g
         style="stroke-width:2.28937793;stroke-miterlimit:4;stroke-dasharray:none"
         id="g4175" />
      <g
         style="stroke-width:2.28937793;stroke-miterlimit:4;stroke-dasharray:none"
         id="g4177" />
      <g
         style="stroke-width:2.28937793;stroke-miterlimit:4;stroke-dasharray:none"
         id="g4179" />
      <g
         style="stroke-width:2.28937793;stroke-miterlimit:4;stroke-dasharray:none"
         id="g4181" />
      <g
         style="stroke-width:2.28937793;stroke-miterlimit:4;stroke-dasharray:none"
         id="g4183" />
      <g
         style="stroke-width:2.28937793;stroke-miterlimit:4;stroke-dasharray:none"
         id="g4185" />
      <g
         style="stroke-width:2.28937793;stroke-miterlimit:4;stroke-dasharray:none"
         id="g4187" />
    </g>
  </g>
</svg>
