<?xml version="1.0" encoding="iso-8859-1"?>
<!-- Generator: Adobe Illustrator 18.0.0, SVG Export Plug-In . SVG Version: 6.00 Build 0)  -->
<!DOCTYPE svg PUBLIC "-//W3C//DTD SVG 1.1//EN" "http://www.w3.org/Graphics/SVG/1.1/DTD/svg11.dtd">
<svg version="1.1" id="Capa_1" xmlns="http://www.w3.org/2000/svg" xmlns:xlink="http://www.w3.org/1999/xlink" x="0px" y="0px"
	 viewBox="0 0 306.202 306.202" style="enable-background:new 0 0 306.202 306.202;" xml:space="preserve">
<g>
	<path d="M145.025,69.912c1.21,1.561,3.074,2.475,5.05,2.475c1.975,0,3.839-0.914,5.05-2.475l22.58-29.125
		c1.494-1.927,1.761-4.537,0.688-6.727c-1.073-2.19-3.299-3.578-5.738-3.578h-6.342V6.39c0-3.529-2.861-6.39-6.39-6.39h-19.698
		c-3.529,0-6.39,2.861-6.39,6.39v24.093h-6.342c-2.439,0-4.665,1.388-5.738,3.578c-1.073,2.19-0.806,4.799,0.688,6.727
		L145.025,69.912z"/>
	<path d="M155.124,236.289c-1.21-1.561-3.075-2.475-5.05-2.475c-1.975,0-3.84,0.913-5.05,2.475l-22.58,29.126
		c-1.494,1.927-1.761,4.537-0.688,6.727c1.073,2.19,3.299,3.578,5.738,3.578h6.342v24.092c0,3.529,2.861,6.39,6.39,6.39h19.698
		c3.529,0,6.39-2.861,6.39-6.39v-24.093h6.342c2.439,0,4.665-1.388,5.738-3.578c1.073-2.19,0.806-4.799-0.688-6.727L155.124,236.289
		z"/>
	<path d="M274.786,102.479H31.415c-8.284,0-15,6.716-15,15v71.022c0,8.284,6.716,15,15,15h243.371c8.284,0,15-6.716,15-15v-71.022
		C289.786,109.195,283.07,102.479,274.786,102.479z"/>
</g>
<g>
</g>
<g>
</g>
<g>
</g>
<g>
</g>
<g>
</g>
<g>
</g>
<g>
</g>
<g>
</g>
<g>
</g>
<g>
</g>
<g>
</g>
<g>
</g>
<g>
</g>
<g>
</g>
<g>
</g>
</svg>
