<?xml version="1.0" encoding="iso-8859-1"?>
<!-- Generator: Adobe Illustrator 19.1.0, SVG Export Plug-In . SVG Version: 6.00 Build 0)  -->
<svg version="1.1" id="Capa_1" xmlns="http://www.w3.org/2000/svg" xmlns:xlink="http://www.w3.org/1999/xlink" x="0px" y="0px"
	 viewBox="0 0 513.32 513.32" style="enable-background:new 0 0 513.32 513.32;" xml:space="preserve">
<g>
	<g>
		<g>
			<path d="M331.519,149.718c-8.555,8.555-8.555,21.388,0,29.944c21.388,21.388,32.082,47.055,32.082,76.998
				c0,59.887-47.055,106.942-106.942,106.942S149.718,316.547,149.718,256.66c0-29.944,10.694-55.61,32.083-76.998
				c8.555-8.555,8.555-21.388,0-29.944c-8.555-8.555-21.388-8.555-29.944,0c-27.805,27.805-44.916,66.304-44.916,106.942
				c0,83.414,66.304,149.718,149.718,149.718s149.718-66.304,149.718-149.718c0-40.638-17.11-79.137-44.916-106.942
				C352.907,141.163,340.074,141.163,331.519,149.718L331.519,149.718z"/>
			<path d="M256.66,256.66c12.833,0,21.388-8.555,21.388-21.388v-128.33c0-12.833-8.555-21.388-21.388-21.388
				s-21.388,8.555-21.388,21.388v128.33C235.272,248.105,243.827,256.66,256.66,256.66z"/>
			<path d="M256.66,0C115.497,0,0,115.497,0,256.66s115.497,256.66,256.66,256.66s256.66-115.497,256.66-256.66S397.823,0,256.66,0z
				 M256.66,470.543c-117.636,0-213.883-96.247-213.883-213.883S139.024,42.777,256.66,42.777s213.883,96.247,213.883,213.883
				S374.296,470.543,256.66,470.543z"/>
		</g>
	</g>
</g>
<g>
</g>
<g>
</g>
<g>
</g>
<g>
</g>
<g>
</g>
<g>
</g>
<g>
</g>
<g>
</g>
<g>
</g>
<g>
</g>
<g>
</g>
<g>
</g>
<g>
</g>
<g>
</g>
<g>
</g>
</svg>
