<?xml version='1.0' encoding='iso-8859-1'?>
<!DOCTYPE svg PUBLIC '-//W3C//DTD SVG 1.1//EN' 'http://www.w3.org/Graphics/SVG/1.1/DTD/svg11.dtd'>
<svg version="1.1" xmlns="http://www.w3.org/2000/svg" viewBox="0 0 511.872 511.872" xmlns:xlink="http://www.w3.org/1999/xlink" enable-background="new 0 0 511.872 511.872">
  <g>
    <path d="m511.443,188.297c-1.701-7.216-8.138-12.353-15.551-12.353h-287.973v-16h48.278c8.825,0 15.722-7.081 15.722-15.914v-47.984c0-8.833-6.897-16.103-15.722-16.103h-127.837c-8.825,0-16.441,7.27-16.441,16.103v47.983c0,8.833 7.616,15.914 16.441,15.914h47.559v16h-95.498c-8.825,0-16.502,7.236-16.502,16.069v17.611c-32,7.431-63.919,39.738-63.919,78.356s31.919,70.924 63.919,78.355v17.611c0,8.833 7.677,15.999 16.502,15.999h223.715c8.825,0 15.783-7.166 15.783-15.999v-86.079l183.022-91.565c6.624-3.319 10.203-10.78 8.502-18.004zm-367.524-76.353h96v16h-96v-16zm-111.96,176.035c-3.55271e-15-20.825 15.959-38.412 31.959-45.035v90.07c-15.999-6.623-31.959-24.211-31.959-45.035zm264.911-14.339c-5.415,2.71-8.951,8.279-8.951,14.339v79.965h-192v-160h332.286l-131.335,65.696z"/>
    <path d="m476.815,310.51c-6.008-8.216-19.756-8.216-25.764,0-5.86,7.989-35.057,49.139-35.057,74.888 0,25.655 21.504,46.531 47.939,46.531 26.435,0 47.939-20.876 47.939-46.531 0-25.749-29.198-66.899-35.057-74.888zm-12.882,89.429c-8.809,0-15.98-6.521-15.98-14.542 0-6.997 7.046-21.797 15.956-36.526 8.552,14.183 16.003,29.318 16.003,36.526 0,8.021-7.17,14.542-15.979,14.542z"/>
  </g>
</svg>
