<?xml version="1.0" encoding="UTF-8" standalone="no"?>
<svg
   xmlns:dc="http://purl.org/dc/elements/1.1/"
   xmlns:cc="http://creativecommons.org/ns#"
   xmlns:rdf="http://www.w3.org/1999/02/22-rdf-syntax-ns#"
   xmlns:svg="http://www.w3.org/2000/svg"
   xmlns="http://www.w3.org/2000/svg"
   xml:space="preserve"
   style="enable-background:new 0 0 55 55;"
   viewBox="0 0 55 55"
   y="0px"
   x="0px"
   id="Capa_1"
   version="1.1"><metadata
     id="metadata47"><rdf:RDF><cc:Work
         rdf:about=""><dc:format>image/svg+xml</dc:format><dc:type
           rdf:resource="http://purl.org/dc/dcmitype/StillImage" /><dc:title></dc:title></cc:Work></rdf:RDF></metadata><defs
     id="defs45" /><g
     id="g3"><g
       id="g5"><path
         id="path7"
         d="M41,26.212V34h4.323C43.477,32.6,41.938,29.812,41,26.212z"
         style="fill:#010002;" /><path
         id="path9"
         d="M45.424,2H6v0.118C2.788,3.045,0.031,9.796,0.031,18H0v35h40V42V19v-1    C40,10.58,42.274,4.275,45.424,2z"
         style="fill:#010002;" /><path
         id="path11"
         d="M48,2.083c-3.794,0-7,7.289-7,15.917c0,8.523,3.271,16,7,16s7-7.477,7-16    C55,9.372,51.794,2.083,48,2.083z M48.68,22.667c-1.117,0-2.021-2.15-2.021-4.63s0.905-4.606,2.021-4.606s2.02,2.126,2.02,4.606    C50.699,20.516,49.794,22.667,48.68,22.667z"
         style="fill:#010002;" /></g></g><g
     id="g13" /><g
     id="g15" /><g
     id="g17" /><g
     id="g19" /><g
     id="g21" /><g
     id="g23" /><g
     id="g25" /><g
     id="g27" /><g
     id="g29" /><g
     id="g31" /><g
     id="g33" /><g
     id="g35" /><g
     id="g37" /><g
     id="g39" /><g
     id="g41" /><g
     transform="translate(38.808477,-0.16479179)"
     id="g4192"><path
       style="fill:none;fill-rule:evenodd;stroke:#ffffff;stroke-width:4;stroke-linecap:butt;stroke-linejoin:miter;stroke-miterlimit:4;stroke-dasharray:none;stroke-opacity:1"
       d="m -27.932216,39.674359 9.722718,-9.722718"
       id="path4175" /><path
       style="fill:none;fill-rule:evenodd;stroke:#ffffff;stroke-width:4;stroke-linecap:butt;stroke-linejoin:miter;stroke-miterlimit:4;stroke-dasharray:none;stroke-opacity:1"
       d="m -11.168445,39.756755 -9.722718,-9.722719"
       id="path4175-3" /></g></svg>