<?xml version="1.0" encoding="UTF-8" standalone="no"?>
<!-- Generator: Adobe Illustrator 19.0.0, SVG Export Plug-In . SVG Version: 6.00 Build 0)  -->

<svg
   xmlns:dc="http://purl.org/dc/elements/1.1/"
   xmlns:cc="http://creativecommons.org/ns#"
   xmlns:rdf="http://www.w3.org/1999/02/22-rdf-syntax-ns#"
   xmlns:svg="http://www.w3.org/2000/svg"
   xmlns="http://www.w3.org/2000/svg"
   xmlns:sodipodi="http://sodipodi.sourceforge.net/DTD/sodipodi-0.dtd"
   xmlns:inkscape="http://www.inkscape.org/namespaces/inkscape"
   version="1.1"
   id="Layer_1"
   x="0px"
   y="0px"
   viewBox="0 0 512 512"
   style="enable-background:new 0 0 512 512;"
   xml:space="preserve"
   inkscape:version="0.91 r"
   sodipodi:docname="print.svg"><metadata
     id="metadata61"><rdf:RDF><cc:Work
         rdf:about=""><dc:format>image/svg+xml</dc:format><dc:type
           rdf:resource="http://purl.org/dc/dcmitype/StillImage" /></cc:Work></rdf:RDF></metadata><defs
     id="defs59" /><sodipodi:namedview
     pagecolor="#ffffff"
     bordercolor="#666666"
     borderopacity="1"
     objecttolerance="10"
     gridtolerance="10"
     guidetolerance="10"
     inkscape:pageopacity="0"
     inkscape:pageshadow="2"
     inkscape:window-width="1920"
     inkscape:window-height="1053"
     id="namedview57"
     showgrid="false"
     inkscape:zoom="0.4609375"
     inkscape:cx="260.33898"
     inkscape:cy="256"
     inkscape:window-x="0"
     inkscape:window-y="0"
     inkscape:window-maximized="1"
     inkscape:current-layer="Layer_1" /><g
     id="g4189"
     transform="matrix(0,-1,1,0,5e-4,512.0005)"><g
       id="g3"><g
         id="g5"><path
           id="path7"
           d="m 475.934,108.229 -95.584,0 0,-53.944 c 0,-5.995 -4.862,-10.857 -10.857,-10.857 l -226.986,0 c -5.995,0 -10.857,4.862 -10.857,10.857 l 0,53.945 -95.584,0 C 16.179,108.229 0,124.409 0,144.296 L 0,317.133 C 0,337.02 16.179,353.2 36.066,353.2 l 95.584,0 0,104.515 c 0,5.995 4.862,10.857 10.857,10.857 l 226.987,0 c 5.995,0 10.857,-4.862 10.857,-10.857 l 0,-104.515 95.584,0 c 19.886,0 36.066,-16.179 36.066,-36.067 l 0,-172.837 C 512,124.409 495.82,108.229 475.934,108.229 Z m -95.585,21.713 25.897,0 0,30.385 -25.897,0 0,-30.385 z m -226.986,-64.8 205.273,0 0,95.186 -205.273,0 0,-95.186 z m -47.61,64.801 25.897,0 0,30.385 -25.897,0 0,-30.385 z m 252.884,316.915 -205.274,0 0,-142.979 205.273,0 0,142.979 z m 131.651,-129.725 -0.001,0 c 0,7.915 -6.439,14.354 -14.352,14.354 l -95.585,0 0,-27.607 19.805,0 c 5.995,0 10.857,-4.862 10.857,-10.857 0,-5.995 -4.862,-10.857 -10.857,-10.857 l -30.661,0 -226.987,0 -30.661,0 c -5.995,0 -10.857,4.862 -10.857,10.857 0,5.995 4.862,10.857 10.857,10.857 l 19.805,0 0,27.607 -95.585,0 c -7.913,0 -14.352,-6.439 -14.352,-14.354 l 0,-172.837 c 0,-7.914 6.439,-14.354 14.352,-14.354 l 47.974,0 0,41.241 c 0,5.995 4.861,10.857 10.857,10.857 l 322.207,0 c 5.995,0 10.857,-4.862 10.857,-10.857 l 0,-41.241 47.974,0 c 7.913,0 14.353,6.439 14.353,14.354 l 0,172.837 z"
           inkscape:connector-curvature="0" /></g></g><g
       id="g9"><g
         id="g11"><circle
           id="circle13"
           r="13.602"
           cy="219.261"
           cx="68.799004" /></g></g><g
       id="g15"><g
         id="g17"><path
           id="path19"
           d="m 252.849,386.456 -50.68,0 c -5.995,0 -10.857,4.86 -10.857,10.857 0,5.995 4.861,10.857 10.857,10.857 l 50.68,0 c 5.995,0 10.857,-4.862 10.857,-10.857 0,-5.997 -4.862,-10.857 -10.857,-10.857 z"
           inkscape:connector-curvature="0" /></g></g><g
       id="g21"><g
         id="g23"><path
           id="path25"
           d="m 309.831,331.483 -107.662,0 c -5.995,0 -10.857,4.862 -10.857,10.857 0,5.996 4.861,10.857 10.857,10.857 l 107.661,0 c 5.995,0 10.857,-4.861 10.857,-10.857 0,-5.995 -4.861,-10.857 -10.856,-10.857 z"
           inkscape:connector-curvature="0" /></g></g></g><g
     id="g27" /><g
     id="g29" /><g
     id="g31" /><g
     id="g33" /><g
     id="g35" /><g
     id="g37" /><g
     id="g39" /><g
     id="g41" /><g
     id="g43" /><g
     id="g45" /><g
     id="g47" /><g
     id="g49" /><g
     id="g51" /><g
     id="g53" /><g
     id="g55" /></svg>