<?xml version="1.0" encoding="iso-8859-1"?>
<!-- Generator: Adobe Illustrator 19.0.0, SVG Export Plug-In . SVG Version: 6.00 Build 0)  -->
<svg xmlns="http://www.w3.org/2000/svg" xmlns:xlink="http://www.w3.org/1999/xlink" version="1.1" id="Capa_1" x="0px" y="0px" viewBox="0 0 490.667 490.667" style="enable-background:new 0 0 490.667 490.667;" xml:space="preserve" width="512px" height="512px">
<g>
	<g>
		<path d="M426.667,0h-64C356.779,0,352,4.779,352,10.667s4.779,10.667,10.667,10.667H416v53.333    c0,5.888,4.779,10.667,10.667,10.667c5.888,0,10.667-4.779,10.667-10.667v-64C437.333,4.779,432.555,0,426.667,0z" fill="#91DC5A"/>
	</g>
</g>
<g>
	<g>
		<path d="M426.667,170.667c-5.888,0-10.667,4.779-10.667,10.667v53.333h-53.333c-5.888,0-10.667,4.779-10.667,10.667    S356.779,256,362.667,256h64c5.888,0,10.667-4.779,10.667-10.667v-64C437.333,175.445,432.555,170.667,426.667,170.667z" fill="#91DC5A"/>
	</g>
</g>
<g>
	<g>
		<path d="M256,0h-64c-5.888,0-10.667,4.779-10.667,10.667v64c0,5.888,4.779,10.667,10.667,10.667s10.667-4.779,10.667-10.667    V21.333H256c5.888,0,10.667-4.779,10.667-10.667S261.888,0,256,0z" fill="#91DC5A"/>
	</g>
</g>
<g>
	<g>
		<path d="M434.197,3.136c-4.16-4.16-10.923-4.16-15.083,0l-64,64c-4.16,4.16-4.16,10.923,0,15.083    c2.091,2.069,4.821,3.115,7.552,3.115c2.731,0,5.461-1.045,7.531-3.115l64-64C438.357,14.059,438.357,7.296,434.197,3.136z" fill="#91DC5A"/>
	</g>
</g>
<g>
	<g>
		<path d="M252.864,56.469L199.531,3.136c-4.16-4.16-10.923-4.16-15.083,0c-4.16,4.16-4.16,10.923,0,15.083l53.333,53.333    c2.091,2.069,4.821,3.115,7.552,3.115s5.461-1.045,7.531-3.115C257.024,67.392,257.024,60.629,252.864,56.469z" fill="#91DC5A"/>
	</g>
</g>
<g>
	<g>
		<path d="M434.197,237.803l-53.333-53.333c-4.16-4.16-10.923-4.16-15.083,0c-4.16,4.16-4.16,10.923,0,15.083l53.333,53.333    c2.091,2.069,4.821,3.115,7.552,3.115c2.731,0,5.461-1.045,7.531-3.115C438.357,248.725,438.357,241.963,434.197,237.803z" fill="#91DC5A"/>
	</g>
</g>
<g>
	<g>
		<path d="M334.72,358.741c-7.573-7.573-20.245-7.467-27.584-0.128l-0.917,0.917c-4.16,4.16-10.923,4.16-15.083,0    c-4.139-4.139-4.16-10.859-0.043-15.04c0.021,0,0.021-0.043,0.043-0.043l22.251-22.251c7.573-7.573,7.573-19.883,0-27.456    c-7.701-7.701-20.011-7.68-27.584-0.128l-22.251,22.251c-4.16,4.16-10.923,4.16-15.083,0c-2.091-2.069-3.136-4.8-3.136-7.531    s1.045-5.461,3.115-7.552l43.584-43.584c7.573-7.573,7.573-19.883,0-27.456c-7.701-7.701-20.011-7.68-27.584-0.128l-43.584,43.584    c-4.16,4.16-10.923,4.16-15.083,0c-2.069-2.069-3.115-4.8-3.115-7.531c0-2.731,1.045-5.461,3.115-7.552l106.731-106.731    c7.573-7.573,7.573-19.883,0-27.456c-7.701-7.701-20.011-7.68-27.584-0.128L124.864,284.864c-2.837,2.816-7.019,3.84-10.837,2.603    c-3.819-1.259-6.613-4.523-7.232-8.491L89.984,172.011C88.128,159.019,76.971,149.333,64,149.333    c-5.888,0-10.667,4.779-10.667,10.667v201.152c0,25.643,9.984,49.749,28.117,67.883l33.557,33.557    c18.112,18.112,42.176,28.075,67.776,28.075c23.915,0,46.827-8.875,64.512-24.939l87.787-79.872    C342.293,378.624,342.293,366.315,334.72,358.741z" fill="#91DC5A"/>
	</g>
</g>
<g>
	<g>
		<path d="M298.667,42.667c-37.547,0-71.851,22.229-87.403,56.597c-2.411,5.376-0.021,11.691,5.333,14.123    c5.355,2.411,11.691,0.021,14.123-5.333C242.816,81.301,269.483,64,298.667,64c41.173,0,74.667,33.493,74.667,74.667    c0,29.184-17.301,55.851-44.053,67.947c-5.376,2.411-7.765,8.747-5.333,14.101c1.771,3.947,5.653,6.272,9.728,6.272    c1.451,0,2.944-0.299,4.373-0.939c34.389-15.531,56.619-49.835,56.619-87.381C394.667,85.739,351.595,42.667,298.667,42.667z" fill="#91DC5A"/>
	</g>
</g>
<g>
</g>
<g>
</g>
<g>
</g>
<g>
</g>
<g>
</g>
<g>
</g>
<g>
</g>
<g>
</g>
<g>
</g>
<g>
</g>
<g>
</g>
<g>
</g>
<g>
</g>
<g>
</g>
<g>
</g>
</svg>
