<?xml version="1.0" encoding="iso-8859-1"?>
<!-- Generator: Adobe Illustrator 18.0.0, SVG Export Plug-In . SVG Version: 6.00 Build 0)  -->
<!DOCTYPE svg PUBLIC "-//W3C//DTD SVG 1.1//EN" "http://www.w3.org/Graphics/SVG/1.1/DTD/svg11.dtd">
<svg version="1.1" id="Capa_1" xmlns="http://www.w3.org/2000/svg" xmlns:xlink="http://www.w3.org/1999/xlink" x="0px" y="0px"
	 viewBox="0 0 216.334 216.334" style="enable-background:new 0 0 216.334 216.334;" xml:space="preserve">
<path d="M91.395,108.167c0-8.689-3.384-16.859-9.529-23.004c-6.145-6.145-14.314-9.528-23.004-9.528
	c-8.69,0-16.859,3.384-23.004,9.528c-6.145,6.145-9.529,14.314-9.529,23.004s3.384,16.86,9.528,23.004
	c6.145,6.145,14.315,9.528,23.004,9.528c8.69,0,16.859-3.384,23.004-9.528C88.011,125.027,91.395,116.857,91.395,108.167z
	 M67.724,117.029c-2.367,2.368-5.514,3.671-8.862,3.671c-3.348,0-6.495-1.303-8.862-3.671c-2.367-2.367-3.67-5.514-3.67-8.862
	s1.303-6.495,3.67-8.862c2.368-2.368,5.515-3.671,8.862-3.671c3.348,0,6.495,1.303,8.862,3.671c2.368,2.367,3.671,5.514,3.671,8.862
	S70.091,114.662,67.724,117.029z M105.334,122.105c-8.69,0-16.86,3.384-23.004,9.529c-6.145,6.145-9.529,14.315-9.529,23.004
	c0,8.69,3.384,16.86,9.529,23.004c6.145,6.145,14.315,9.529,23.005,9.529s16.86-3.384,23.005-9.529
	c12.684-12.684,12.684-33.323,0-46.008C122.194,125.49,114.024,122.105,105.334,122.105z M114.196,163.501
	c-2.367,2.367-5.515,3.671-8.862,3.671c-3.348,0-6.495-1.304-8.863-3.671c-2.367-2.367-3.671-5.514-3.671-8.862
	c0-3.348,1.304-6.495,3.671-8.862c2.367-2.368,5.515-3.671,8.862-3.671c3.348,0,6.495,1.304,8.862,3.671
	C119.082,150.663,119.082,158.614,114.196,163.501z M174.81,85.163c-6.145-6.145-14.315-9.528-23.005-9.528
	c-8.689,0-16.859,3.384-23.004,9.528c-6.145,6.145-9.528,14.315-9.528,23.004c0,8.69,3.384,16.86,9.528,23.004
	c6.145,6.145,14.314,9.528,23.004,9.528c8.69,0,16.859-3.384,23.003-9.528c6.146-6.145,9.53-14.315,9.53-23.005
	C184.339,99.477,180.955,91.307,174.81,85.163z M160.667,117.029c-2.367,2.368-5.514,3.671-8.862,3.671
	c-3.348,0-6.495-1.303-8.862-3.671c-2.367-2.367-3.67-5.514-3.67-8.862s1.303-6.495,3.671-8.862
	c2.367-2.368,5.514-3.671,8.862-3.671c3.348,0,6.496,1.304,8.863,3.671c2.367,2.367,3.67,5.514,3.67,8.862
	C164.339,111.514,163.035,114.662,160.667,117.029z M105.334,94.229c8.69,0,16.86-3.384,23.005-9.529
	c12.683-12.685,12.683-33.323,0-46.008c-6.145-6.145-14.315-9.529-23.005-9.529s-16.86,3.384-23.004,9.529
	C76.185,44.836,72.8,53.005,72.8,61.695c0,8.69,3.384,16.859,9.529,23.004C88.474,90.844,96.644,94.229,105.334,94.229z
	 M96.472,52.833c2.367-2.367,5.515-3.671,8.862-3.671c3.348,0,6.495,1.304,8.862,3.671c4.886,4.887,4.886,12.838,0,17.724
	c-2.367,2.368-5.515,3.671-8.862,3.671c-3.348,0-6.495-1.304-8.862-3.671c-2.368-2.367-3.671-5.514-3.671-8.862
	C92.8,58.348,94.104,55.201,96.472,52.833z M210.667,108.167c0-58.081-47.252-105.333-105.333-105.333
	C47.252,2.833,0,50.086,0,108.167s47.252,105.334,105.334,105.334h111v-20H167.01C193.44,174.344,210.667,143.232,210.667,108.167z
	 M105.334,193.501C58.281,193.501,20,155.22,20,108.167s38.281-85.333,85.334-85.333c47.053,0,85.333,38.28,85.333,85.333
	S152.387,193.501,105.334,193.501z"/>
<g>
</g>
<g>
</g>
<g>
</g>
<g>
</g>
<g>
</g>
<g>
</g>
<g>
</g>
<g>
</g>
<g>
</g>
<g>
</g>
<g>
</g>
<g>
</g>
<g>
</g>
<g>
</g>
<g>
</g>
</svg>
