<?xml version="1.0" encoding="iso-8859-1"?>
<!-- Generator: Adobe Illustrator 16.0.0, SVG Export Plug-In . SVG Version: 6.00 Build 0)  -->
<!DOCTYPE svg PUBLIC "-//W3C//DTD SVG 1.1//EN" "http://www.w3.org/Graphics/SVG/1.1/DTD/svg11.dtd">
<svg version="1.1" id="Capa_1" xmlns="http://www.w3.org/2000/svg" xmlns:xlink="http://www.w3.org/1999/xlink" x="0px" y="0px"
	 width="47px" height="47px" viewBox="0 0 47 47" style="enable-background:new 0 0 47 47;" xml:space="preserve">
<g>
	<g>
		<path d="M46.001,17.775h-10.91c-0.55,0-1.12,0.434-1.268,0.963l-0.599,2.156c-0.146,0.529-0.393,0.531-0.547,0.003l-0.629-2.162
			c-0.154-0.528-0.729-0.96-1.279-0.96H1.001c-0.55,0-1,0.451-1,1v12.943c0,6.986,3.591,11.157,9.609,11.157
			c0.184,0,0.366-0.009,0.545-0.02c0.855-0.041,1.676-0.174,2.458-0.402c0.187-0.035,0.306-0.053,0.308-0.039l0.004,0.046h10.092
			c0.55,0,0.978-0.45,0.95-0.999l-0.064-1.285c-0.028-0.549-0.07-1.447-0.095-1.998l-0.083-3.765
			c-0.011-0.55-0.019-1.447-0.019-1.994c0-0.545,0.153-0.569,0.341-0.056l0.877,2.408l2.457,6.748
			c0.188,0.518,0.792,0.939,1.342,0.939h8.092c0.549,0,1.156-0.422,1.349-0.938l8.489-22.812
			C46.844,18.197,46.551,17.775,46.001,17.775z M19.729,39.333h-2.975c-0.55,0-1.046-0.448-1.102-0.995l-0.063-0.611
			c-0.056-0.547-0.127-0.994-0.157-0.994c-0.014,0-0.087,0.074-0.186,0.186c-0.78,1.141-2.49,2.83-5.637,2.83
			c-3.731,0-6.48-2.337-6.48-8.029v-1v-8.813c0-0.55,0.45-1,1-1h3.764c0.55,0,1,0.45,1,1v7.911c0,0.55,0.089,1.44,0.198,1.979
			c0,0,0.587,2.907,2.302,3.277c0.121,0.013,0.234,0.038,0.366,0.038c1.582,0,2.485-1.092,2.862-1.996
			c0.111-0.248,0.15-0.563,0.169-0.887c0.012-0.455,0.021-0.978,0.021-1.357v-8.966c0-0.55,0.45-1,1-1h3.766c0.55,0,1,0.45,1,1
			v10.512c0,0.55,0.008,1.449,0.017,2l0.091,3.919C20.709,38.883,20.278,39.333,19.729,39.333z M42.15,21.841l-6.162,16.556
			c-0.192,0.515-0.799,0.937-1.35,0.937h-3.727c-0.551,0-1.154-0.423-1.342-0.938l-6.026-16.551
			c-0.188-0.517,0.108-0.938,0.658-0.938h4.22c0.551,0,1.125,0.432,1.279,0.96l3.062,11.101c0.11,0.538,0.227,0.979,0.258,0.979
			s0.147-0.441,0.26-0.979l2.921-11.098c0.146-0.53,0.717-0.963,1.267-0.963h4.03C42.049,20.904,42.342,21.326,42.15,21.841z"/>
		<path d="M1,15.125h2c0.55,0,1-0.45,1-1v-9c0-0.55-0.45-1-1-1H1c-0.55,0-1,0.451-1,1v9C0,14.674,0.45,15.125,1,15.125z"/>
		<path d="M11.752,15.125h2c0.55,0,1-0.45,1-1v-9c0-0.55-0.45-1-1-1h-2c-0.55,0-1,0.451-1,1v9
			C10.751,14.674,11.202,15.125,11.752,15.125z"/>
		<path d="M22.501,15.125h2c0.55,0,1-0.45,1-1v-9c0-0.55-0.45-1-1-1h-2c-0.55,0-1,0.451-1,1v9
			C21.501,14.674,21.951,15.125,22.501,15.125z"/>
		<path d="M46,4.125h-2c-0.55,0-1,0.451-1,1v9c0,0.55,0.45,1,1,1h2c0.55,0,1-0.45,1-1v-9C47,4.575,46.55,4.125,46,4.125z"/>
		<path d="M33.479,13.279c0.424,1.015,1.119,1.015,1.543,0L38.08,5.97c0.424-1.015-0.128-1.845-1.229-1.845h-5.203
			c-1.1,0-1.652,0.83-1.229,1.845L33.479,13.279z"/>
	</g>
</g>
<g>
</g>
<g>
</g>
<g>
</g>
<g>
</g>
<g>
</g>
<g>
</g>
<g>
</g>
<g>
</g>
<g>
</g>
<g>
</g>
<g>
</g>
<g>
</g>
<g>
</g>
<g>
</g>
<g>
</g>
</svg>
